<svg xmlns="http://www.w3.org/2000/svg" xmlns:xlink="http://www.w3.org/1999/xlink" width="1500" zoomAndPan="magnify" viewBox="0 0 1125 1124.99995" height="1500" preserveAspectRatio="xMidYMid meet" version="1.0"><defs><clipPath id="1446c3ba5f"><path d="M 211 417 L 972.65625 417 L 972.65625 927 L 211 927 Z M 211 417 " clip-rule="nonzero"/></clipPath></defs><path fill="#f7c592" d="M 590.5625 510.1875 C 590.5625 510.1875 605.507812 520.152344 618.792969 530.117188 C 632.078125 540.082031 643.699219 545.0625 660.308594 541.742188 C 676.914062 538.417969 686.878906 535.097656 723.410156 526.796875 C 759.945312 518.492188 789.835938 510.1875 818.066406 525.132812 C 846.300781 540.082031 876.191406 521.8125 882.832031 515.171875 C 889.476562 508.527344 906.082031 500.226562 896.117188 500.226562 C 886.152344 500.226562 864.566406 515.171875 864.566406 515.171875 L 833.015625 528.457031 L 826.371094 511.847656 L 851.28125 505.207031 C 877.851562 510.1875 894.457031 503.546875 864.566406 495.242188 C 834.675781 486.941406 819.730469 501.886719 801.460938 501.886719 C 783.195312 501.886719 632.078125 501.886719 632.078125 501.886719 Z M 469.335938 624.773438 L 818.066406 812.425781 C 818.066406 812.425781 756.625 812.425781 608.828125 764.265625 C 461.03125 716.109375 444.425781 661.308594 444.425781 661.308594 L 469.335938 624.773438 " fill-opacity="1" fill-rule="nonzero"/><path fill="#302b2a" d="M 480.128906 359.484375 C 480.128906 359.484375 451.066406 329.179688 456.050781 300.949219 C 461.03125 272.71875 489.261719 262.753906 489.261719 262.753906 L 459.371094 249.46875 C 459.371094 249.46875 414.53125 295.964844 369.695312 290.984375 C 324.859375 286.003906 316.554688 264.414062 316.554688 264.414062 L 349.769531 271.058594 C 349.769531 271.058594 394.605469 191.347656 446.085938 209.613281 C 497.566406 227.878906 495.902344 261.09375 495.902344 261.09375 C 495.902344 261.09375 522.472656 257.773438 539.082031 274.378906 C 555.6875 290.984375 525.796875 352.429688 525.796875 352.429688 L 480.128906 359.484375 " fill-opacity="1" fill-rule="nonzero"/><path fill="#ff5757" d="M 311.574219 420.515625 L 346.445312 420.515625 C 238.503906 470.332031 213.59375 568.3125 228.542969 568.3125 C 243.488281 568.3125 291.644531 568.3125 329.839844 568.3125 C 368.035156 568.3125 373.015625 495.242188 424.496094 491.921875 C 475.976562 488.601562 519.152344 460.371094 519.152344 460.371094 L 567.3125 516.832031 L 632.078125 501.886719 C 632.078125 501.886719 580.597656 425.496094 555.6875 405.570312 C 530.777344 385.640625 452.726562 352.429688 401.246094 355.75 C 349.769531 359.070312 293.304688 362.390625 293.304688 362.390625 Z M 286.664062 895.457031 C 278.359375 905.421875 276.699219 897.117188 271.71875 900.4375 C 266.734375 903.761719 240.164062 936.972656 251.789062 936.972656 C 263.414062 936.972656 299.949219 936.972656 344.785156 936.972656 C 389.625 936.972656 391.285156 923.6875 356.410156 920.367188 C 321.539062 917.046875 301.609375 895.457031 301.609375 895.457031 L 303.269531 878.851562 C 291.644531 878.851562 294.96875 885.492188 286.664062 895.457031 Z M 814.746094 797.480469 C 814.746094 797.480469 824.710938 807.441406 852.941406 819.066406 C 881.171875 830.691406 942.617188 847.296875 922.6875 860.582031 C 902.761719 873.867188 876.191406 853.941406 852.941406 852.28125 C 829.691406 850.621094 823.050781 857.261719 814.746094 838.996094 C 806.445312 820.726562 804.78125 819.066406 813.085938 817.40625 C 821.390625 815.746094 794.820312 797.480469 814.746094 797.480469 " fill-opacity="1" fill-rule="nonzero"/><g clip-path="url(#1446c3ba5f)"><path fill="#0097b2" d="M 332.792969 889.554688 C 333.550781 889.9375 334.441406 890.519531 334.363281 891.167969 C 333.980469 894.445312 318.210938 899.660156 306.28125 902.578125 C 307.675781 899.289062 311.671875 891.28125 318.683594 888.378906 C 320.429688 887.660156 322.25 887.296875 324.144531 887.296875 C 326.890625 887.296875 329.777344 888.050781 332.792969 889.554688 Z M 305.117188 904.566406 C 310.160156 903.382812 335.328125 897.183594 336.007812 891.363281 C 336.160156 890.078125 335.328125 888.96875 333.53125 888.074219 C 327.984375 885.296875 322.777344 884.890625 318.039062 886.84375 C 308.464844 890.8125 304.316406 902.980469 304.144531 903.5 L 303.671875 904.910156 Z M 324.074219 923.738281 C 323.910156 924.234375 322.988281 924.519531 321.539062 924.519531 C 311.488281 924.519531 307.390625 910.972656 306.167969 905.699219 C 314.636719 912.003906 324.941406 921.054688 324.074219 923.738281 Z M 325.65625 924.246094 C 327.285156 919.199219 309.082031 905.730469 305.417969 903.085938 L 303.808594 901.925781 L 304.113281 903.882812 C 304.25 904.796875 307.699219 926.179688 321.539062 926.179688 C 323.851562 926.179688 325.242188 925.53125 325.65625 924.246094 Z M 873.816406 819.496094 C 874.78125 821.105469 874.328125 821.746094 874.179688 821.960938 C 872.089844 824.933594 858.546875 823.707031 848.984375 822.039062 C 856.398438 818.71875 870.449219 813.882812 873.816406 819.496094 Z M 875.535156 822.914062 C 876.347656 821.757812 876.25 820.320312 875.242188 818.640625 C 869.929688 809.773438 846.910156 821.15625 845.929688 821.648438 L 843.757812 822.734375 L 846.136719 823.199219 C 847.808594 823.53125 857.773438 825.425781 865.738281 825.425781 C 870.300781 825.425781 874.210938 824.808594 875.535156 822.914062 Z M 867.542969 799.300781 C 868.660156 802.648438 856.464844 813.515625 847.484375 820.441406 C 848.667969 814.597656 852.988281 798.308594 864.566406 798.308594 C 865.558594 798.308594 867.257812 798.4375 867.542969 799.300781 Z M 846.796875 823.050781 C 850.859375 820.007812 871.035156 804.511719 869.121094 798.777344 C 868.652344 797.367188 867.113281 796.648438 864.566406 796.648438 C 849.074219 796.648438 845.617188 821.234375 845.476562 822.277344 L 845.214844 824.238281 Z M 947.597656 425.496094 C 912.722656 402.246094 881.171875 430.476562 879.511719 465.351562 C 878.53125 485.910156 873.519531 493.765625 869.5625 496.753906 C 892.375 504.316406 876.214844 509.882812 851.28125 505.207031 L 826.371094 511.847656 L 832.746094 527.789062 L 834.121094 527.988281 L 864.566406 515.171875 C 864.566406 515.171875 886.152344 500.226562 896.117188 500.226562 C 903.03125 500.226562 897.15625 504.222656 890.6875 508.890625 C 896.144531 509.480469 902 512.75 909.402344 520.152344 C 922.6875 533.4375 942.617188 535.097656 959.222656 515.171875 C 975.828125 495.242188 982.472656 448.746094 947.597656 425.496094 Z M 333.441406 568.03125 L 417.023438 601.804688 L 384.640625 596.542969 L 333.160156 702.824219 C 148.832031 702.824219 228.542969 568.3125 228.542969 568.3125 L 333.441406 568.03125 " fill-opacity="1" fill-rule="nonzero"/></g><path fill="#f7c592" d="M 477.636719 608.167969 C 444.425781 603.183594 384.640625 596.542969 384.640625 596.542969 L 351.429688 664.628906 L 397.925781 664.628906 C 333.609375 715.167969 286.242188 875.847656 279.253906 900.554688 C 279.871094 900.535156 280.535156 900.398438 281.265625 900.082031 C 283.660156 897.058594 287.460938 892.265625 292.386719 886.078125 C 293.746094 883.191406 294.816406 881.054688 297.308594 879.882812 C 329.203125 839.824219 394.527344 758.351562 439.441406 706.144531 C 500.886719 634.738281 510.851562 613.148438 477.636719 608.167969 Z M 522.472656 377.335938 C 530.375 384.453125 540.742188 388.960938 552.367188 387.300781 C 563.992188 385.640625 563.992188 367.375 563.992188 354.089844 L 582.257812 354.089844 C 582.257812 354.089844 560.667969 339.144531 557.347656 314.234375 C 554.027344 289.324219 539.082031 274.378906 539.082031 274.378906 L 507.527344 320.875 C 507.527344 320.875 485.941406 304.269531 477.636719 314.234375 C 469.335938 324.199219 490.921875 344.125 490.921875 344.125 L 470.996094 367.375 C 470.996094 367.375 469.335938 405.570312 469.335938 422.175781 C 469.335938 438.78125 487.601562 437.121094 492.582031 405.570312 C 497.566406 374.015625 505.867188 362.390625 522.472656 377.335938 Z M 308.253906 407.230469 C 308.253906 407.230469 275.039062 407.230469 221.898438 407.230469 C 168.757812 407.230469 152.152344 383.980469 183.703125 344.125 C 215.257812 304.269531 270.058594 241.164062 270.058594 241.164062 C 270.058594 241.164062 225.21875 188.023438 241.828125 188.023438 C 258.433594 188.023438 283.34375 216.257812 283.34375 216.257812 C 283.34375 216.257812 276.699219 196.328125 280.019531 194.667969 C 283.34375 193.007812 304.929688 234.523438 293.304688 251.128906 C 281.683594 267.734375 216.917969 365.714844 216.917969 365.714844 L 293.304688 362.390625 L 308.253906 407.230469 " fill-opacity="1" fill-rule="nonzero"/></svg>